<?xml version="1.0" encoding="UTF-8"?>
<svg id="Layer_1" data-name="Layer 1" xmlns="http://www.w3.org/2000/svg" viewBox="0 0 344.306 76.161">
  <defs>
    <style>
      .cls-1 {
        fill: #e9713a;
      }

      .cls-2 {
        fill: #e7e5e4;
      }
    </style>
  </defs>
  <path class="cls-1" d="m63.724,37.905c0,7.755.016,15.511-.007,23.266-.011,3.597-.074,7.194-.162,10.789-.061,2.504-1.146,3.728-3.638,4.096-.94.139-1.911.1-2.867.1-16.955.005-33.911.006-50.866-.003-.756,0-1.516-.062-2.267-.152-2.744-.327-3.886-1.625-3.907-4.451-.018-2.478-.005-4.957-.005-7.436,0-18.475,0-36.95.002-55.425,0-1.399.007-2.799.043-4.197C.12,1.747,1.492.287,4.207.049,4.683.008,5.165.002,5.644.002,22.799,0,39.954-.004,57.11.01c1.075,0,2.164.053,3.221.231,2.314.39,3.216,1.508,3.233,3.847.032,4.478.069,8.956.078,13.434.013,6.794.003,13.589.003,20.383.026,0,.053,0,.079,0Zm-7.85-9.846c.091-.449.218-.744.199-1.03-.416-6.457-.801-12.917-1.3-19.368-.189-2.445-.435-2.567-2.922-2.536-9.993.122-19.985.262-29.978.395-4.038.054-8.075.134-12.113.139-1.002.001-1.321.368-1.348,1.328-.209,7.429-.461,14.857-.682,22.286-.045,1.519.121,1.651,1.557,1.794,4.426.44,8.78,1.262,12.984,2.728,4.524,1.578,8.82,3.578,12.09,7.259,2.111,2.376,3.527,5.123,4.295,8.198.522,2.087-.052,3.413-1.639,3.942-1.572.525-2.86-.246-3.663-2.193-.152-.369-.322-.733-.442-1.113-1.307-4.158-4.18-6.854-7.962-8.812-4.725-2.446-9.787-3.605-15.001-4.305-2.43-.326-2.487-.365-2.455,2.025.12,8.911.214,17.824.466,26.731.103,3.668-.137,3.807,4.01,4.127,6.649.512,13.333.909,19.995.824,6.984-.089,13.959-.803,20.938-1.247.853-.054,1.434-.492,1.651-1.321.161-.615.33-1.246.355-1.875.365-9.103.685-18.207,1.071-27.308.078-1.836-.624-3.219-1.872-4.473-4.253-4.278-9.413-6.805-15.278-7.964-1.644-.325-3.321-.483-4.974-.769-2.359-.407-3.418-2.481-2.231-4.309.669-1.03,1.693-1.253,2.827-1.212,7.418.264,14.042,2.772,20.034,7.074.414.297.83.59,1.385.985Z"/>
  <path class="cls-2" d="m259.227,33.773c.163.101.381.273.627.381,4.969,2.188,6.393,7.867,5.037,12.126-1.023,3.213-3.325,5.247-6.604,5.695-3.576.489-7.213.567-10.828.737-2.043.096-4.093.023-6.141.015-1.702-.006-1.801-.111-1.799-1.836.014-9.444.031-18.888.044-28.332.001-.976-.144-1.976.026-2.92.088-.491.713-1.264,1.098-1.265,5.38-.019,10.808-.66,16.106.758,5.07,1.357,7.631,6.695,5.312,11.169-.654,1.262-1.841,2.247-2.879,3.472Zm-12.4,8.079c0,1.163-.056,2.33.035,3.485.026.332.479.904.734.903,2.274-.009,4.566.027,6.817-.244,2.356-.284,3.757-2.225,3.611-4.536-.13-2.055-1.666-3.502-4.02-3.677-1.899-.141-3.806-.158-5.707-.277-1.055-.066-1.569.279-1.486,1.416.07.972.015,1.952.016,2.929Zm.002-13.501c0,.744-.082,1.501.035,2.225.058.358.497.946.743.935,1.985-.083,3.996-.126,5.938-.5,1.4-.27,2.164-1.727,2.064-3.107-.103-1.422-1.011-2.445-2.543-2.713-.91-.159-1.846-.23-2.771-.229-3.694.004-3.482-.533-3.466,3.388Z"/>
  <path class="cls-2" d="m226.833,50.723c-.383.178-.72.257-.955.456-5.18,4.384-14.582,1.123-17.106-5.48-2.483-6.495-1.07-12.692,4.2-16.607,3.77-2.801,7.827-3.139,12.044-.974.6.308,1.21.596,2.126,1.046,0-3.187-.006-6.062.002-8.938.005-1.826.208-2.062,2.068-2.164,1.252-.068,2.509-.017,3.763-.049.873-.022,1.25.33,1.249,1.239-.017,10.739-.017,21.478,0,32.217.001.924-.44,1.247-1.267,1.249-1.581.004-3.163-.043-4.741.018-1.456.056-.946-1.198-1.384-2.014Zm.448-10.986c.014-3.731-2.497-6.428-6.012-6.456-3.78-.03-6.492,2.75-6.503,6.665-.01,3.677,2.843,6.964,6.199,6.733,3.735-.257,6.247-2.041,6.316-6.942Z"/>
  <path class="cls-2" d="m104.082,17.878c4.198.193,7.838,2.101,10.534,5.811.678.934.78,1.579-.448,2.144-1.049.483-2.037,1.12-2.993,1.775-.886.606-1.475.657-2.166-.352-1.254-1.831-3.084-2.831-5.323-2.826-.8.002-1.691.212-2.382.604-2.185,1.24-2.194,3.89.008,5.167,1.396.809,2.967,1.31,4.418,2.033,2.072,1.034,4.149,2.069,6.145,3.238,6.145,3.597,5.421,12.24-.061,15.608-6.237,3.831-13.58,3.149-18.977-3.001-.091-.104-.162-.227-.239-.343-1.598-2.445-1.489-2.891,1.041-4.256.082-.044.165-.085.248-.126.872-.433,1.811-1.295,2.596-1.173.716.111,1.299,1.264,1.884,2.003,2.208,2.789,6.045,2.707,8.295,1.953,1.237-.415,1.72-1.49,1.81-2.738.097-1.35-.237-2.518-1.555-3.154-1.964-.949-3.962-1.83-5.919-2.793-1.583-.778-3.18-1.548-4.679-2.472-4.391-2.705-5.324-9.404-1.805-13.153,2.467-2.628,5.56-3.975,9.567-3.948Z"/>
  <path class="cls-2" d="m326.396,43.025c.439.66.766,1.445,1.337,1.956,1.948,1.744,4.212,2.485,6.825,1.757.268-.075.535-.154.802-.234,4.247-1.276,3.155-1.688,6.52,1.649.9.893.702,1.474-.162,2.121-3.218,2.408-6.866,3.147-10.794,2.748-.643-.065-1.278-.233-1.908-.388-6.596-1.616-10.061-5.732-10.419-12.366-.317-5.863,3.045-10.482,9.063-12.777,6.732-2.568,16.322,1.028,16.646,11.109.139,4.321.23,3.934-3.815,3.939-4.045.005-8.091-.002-12.136.005-.545.001-1.09.059-1.635.09-.108.13-.216.26-.324.39Zm11.182-5.76c-.422-2.12-2.998-4.188-4.827-4.268-2.603-.114-4.915,1.087-5.97,3.254-.495,1.017.016,1.221.89,1.219,2.872-.007,5.745.005,8.617-.011.4-.002.8-.117,1.29-.194Z"/>
  <path class="cls-2" d="m186.486,30.553c2.764-2.933,5.966-4.066,9.729-3.439,4.513.752,7.199,3.695,7.549,8.839.349,5.138.215,10.309.293,15.465.013.846-.37,1.304-1.249,1.302-1.628-.003-3.256-.006-4.884.007-.992.008-1.087-.611-1.084-1.395.016-3.721.034-7.443-.008-11.164-.014-1.25-.122-2.511-.322-3.745-.406-2.51-2.483-3.778-4.932-3.095-3.135.875-5.061,3.395-5.061,6.624,0,3.627.003,7.254-.001,10.882-.002,1.69-.27,1.929-1.945,1.897-1.298-.025-2.598-.017-3.896,0-.984.012-1.428-.418-1.426-1.431.016-7.629.018-15.258-.004-22.886-.003-.898.314-1.263,1.22-1.24,1.534.039,3.071.05,4.604-.003,1.086-.037,1.553.362,1.428,1.476-.07.628-.013,1.271-.013,1.907Z"/>
  <path class="cls-2" d="m119.544,39.997c.005-7.541,5.884-13.155,13.757-13.139,6.886.015,12.73,6.007,12.734,13.057.004,7.404-5.543,13.099-12.835,13.175-8.107.085-13.662-5.241-13.656-13.093Zm6.947-.085c-.016,3.959,2.469,6.687,6.08,6.677,3.753-.011,6.392-2.714,6.424-6.582.032-3.85-2.569-6.709-6.117-6.724-3.973-.017-6.37,2.472-6.387,6.63Z"/>
  <path class="cls-2" d="m167.317,48.711c-.47.494-.693.716-.902.95-2.589,2.911-5.909,4.053-9.571,3.048-3.71-1.018-5.995-3.796-6.877-7.564-.271-1.16-.281-2.397-.29-3.6-.033-4.187-.019-8.375-.009-12.563.004-1.637.23-1.823,1.889-1.795,1.255.021,2.514.051,3.766-.017,1.152-.063,1.577.397,1.57,1.54-.022,4.094.003,8.188.043,12.282.009.878.084,1.77.257,2.63.498,2.479,2.306,3.548,4.773,2.886,3.401-.912,5.301-3.397,5.34-6.913.041-3.718.142-7.436.165-11.155.006-1.012.472-1.283,1.374-1.263,1.487.033,2.977.044,4.463-.005.917-.03,1.221.338,1.218,1.231-.021,7.584-.028,15.169.005,22.753.005,1.176-.531,1.576-1.59,1.572-1.489-.006-2.978-.016-4.467.006-.914.014-1.236-.404-1.169-1.293.06-.798.013-1.605.013-2.728Z"/>
  <path class="cls-2" d="m274.521,61.852c.247-.726.37-1.208.571-1.655,1.027-2.288,2.028-4.59,3.134-6.84.543-1.104.53-2.075.033-3.184-3.116-6.95-6.193-13.917-9.274-20.883-.278-.629-.497-1.283-.902-2.339,1.326,0,2.404,0,3.482,0,4.501-.005,3.674-.191,5.24,3.452,1.595,3.711,3.145,7.442,4.726,11.159.233.547.534,1.064.957,1.898.401-.732.709-1.209.935-1.721,1.929-4.377,3.877-8.746,5.74-13.151.494-1.168,1.245-1.649,2.446-1.639,1.705.015,3.411.004,5.372.004-.221.73-.312,1.208-.505,1.641-4.744,10.647-9.507,21.285-14.238,31.938-.436.981-.997,1.414-2.119,1.348-1.755-.103-3.521-.027-5.599-.027Z"/>
  <path class="cls-2" d="m315.591,46.144c0,1.877.055,3.585-.045,5.285-.021.355-.558.853-.957.985-2.439.807-4.918.929-7.386.103-2.701-.904-4.156-3.06-4.236-6.536-.083-3.623-.066-7.25-.003-10.873.023-1.305-.259-1.965-1.746-1.968-1.87-.004-1.933-.171-1.949-2.032-.008-.882.075-1.768.021-2.647-.069-1.129.463-1.434,1.504-1.433,2.145.002,2.145-.039,2.147-2.146.004-3.794.004-3.805,3.747-3.791,4.064.015,3.478-.422,3.509,3.453.021,2.64.004,2.64,2.65,2.64,2.675,0,2.739.002,2.642,2.732-.123,3.487.768,3.267-3.265,3.271q-2.022.002-2.023,1.961c0,2.788-.005,5.577.001,8.365.006,2.677.614,3.233,3.226,2.951.639-.069,1.274-.186,2.161-.319Z"/>
</svg>