<?xml version="1.0" encoding="UTF-8"?>
<svg id="Layer_1" data-name="Layer 1" xmlns="http://www.w3.org/2000/svg" viewBox="0 0 63.73 76.161">
  <defs>
    <style>
      .cls-1 {
        fill: #de5617;
      }
    </style>
  </defs>
  <path class="cls-1" d="m63.724,37.905c0,7.755.016,15.511-.007,23.266-.011,3.597-.074,7.194-.162,10.789-.061,2.504-1.146,3.728-3.638,4.096-.94.139-1.911.1-2.867.1-16.955.005-33.911.006-50.866-.003-.756,0-1.516-.062-2.267-.152-2.744-.327-3.886-1.625-3.907-4.451-.018-2.478-.005-4.957-.005-7.436,0-18.475,0-36.95.002-55.425,0-1.399.007-2.799.043-4.197C.12,1.747,1.492.287,4.207.049,4.683.008,5.165.002,5.644.002,22.799,0,39.954-.004,57.11.01c1.075,0,2.164.053,3.221.231,2.314.39,3.216,1.508,3.233,3.847.032,4.478.069,8.956.078,13.434.013,6.794.003,13.589.003,20.383.026,0,.053,0,.079,0Zm-7.85-9.846c.091-.449.218-.744.199-1.03-.416-6.457-.801-12.917-1.3-19.368-.189-2.445-.435-2.567-2.922-2.536-9.993.122-19.985.262-29.978.395-4.038.054-8.075.134-12.113.139-1.002.001-1.321.368-1.348,1.328-.209,7.429-.461,14.857-.682,22.286-.045,1.519.121,1.651,1.557,1.794,4.426.44,8.78,1.262,12.984,2.728,4.524,1.578,8.82,3.578,12.09,7.259,2.111,2.376,3.527,5.123,4.295,8.198.522,2.087-.052,3.413-1.639,3.942-1.572.525-2.86-.246-3.663-2.193-.152-.369-.322-.733-.442-1.113-1.307-4.158-4.18-6.854-7.962-8.812-4.725-2.446-9.787-3.605-15.001-4.305-2.43-.326-2.487-.365-2.455,2.025.12,8.911.214,17.824.466,26.731.103,3.668-.137,3.807,4.01,4.127,6.649.512,13.333.909,19.995.824,6.984-.089,13.959-.803,20.938-1.247.853-.054,1.434-.492,1.651-1.321.161-.615.33-1.246.355-1.875.365-9.103.685-18.207,1.071-27.308.078-1.836-.624-3.219-1.872-4.473-4.253-4.278-9.413-6.805-15.278-7.964-1.644-.325-3.321-.483-4.974-.769-2.359-.407-3.418-2.481-2.231-4.309.669-1.03,1.693-1.253,2.827-1.212,7.418.264,14.042,2.772,20.034,7.074.414.297.83.59,1.385.985Z"/>
</svg>